<svg xmlns="http://www.w3.org/2000/svg" width="1024" height="500" viewBox="0 0 1024 500" role="img" aria-label="Bedtime Quests"><rect width="1024" height="500" fill="#16283A"/>
  <circle cx="628" cy="96" r="3.5" fill="#FFC24B"/>
  <circle cx="946" cy="150" r="3" fill="#FFF1DC"/>
  <circle cx="700" cy="430" r="3" fill="#FFF1DC"/>
  <circle cx="980" cy="380" r="3.5" fill="#2FB98A"/>
<g transform="translate(96 80) scale(3.4)"><rect width="100" height="100" rx="22" fill="#16283A"/><clipPath id="featTile"><rect width="100" height="100" rx="22"/></clipPath><mask id="mF"><rect width="100" height="100" fill="#FFFFFF"/><circle cx="72" cy="24" r="10.5" fill="#000000"/></mask><circle cx="77" cy="24" r="12" fill="#FFC24B" mask="url(#mF)"/><path d="M21 25 L24 32 L31 35 L24 38 L21 45 L18 38 L11 35 L18 32 Z" fill="#FFF1DC"/><path d="M50 28 L50 62" stroke="#FFF1DC" stroke-width="3.5" stroke-linecap="round"/><path d="M50 28 L68 35 L50 42 Z" fill="#FF6B4A"/><path d="M50 42 L50 62 L30 62 Z" fill="#FFF1DC"/><path d="M50 42 L70 62 L50 62 Z" fill="#FFF1DC"/><path d="M22 62 L78 62 L67 78 L33 78 Z" fill="#E14A2B"/><g clip-path="url(#featTile)"><path d="M0 76 Q25 70 50 73 Q75 76 100 71 L100 100 L0 100 Z" fill="#2FB98A"/></g></g><text x="470" y="212" font-family="Arial, 'Segoe UI', 'Helvetica Neue', Helvetica, sans-serif" font-weight="800" font-size="104" fill="#FFF1DC">Bedtime</text><text x="470" y="318" font-family="Arial, 'Segoe UI', 'Helvetica Neue', Helvetica, sans-serif" font-weight="800" font-size="104" fill="#FFF1DC">Quests</text><text x="474" y="388" font-family="Arial, 'Segoe UI', 'Helvetica Neue', Helvetica, sans-serif" font-weight="700" font-size="38" fill="#FFC24B">Choose your own goodnight</text></svg>
