<svg xmlns="http://www.w3.org/2000/svg" width="1024" height="500" viewBox="0 0 1024 500" role="img" aria-label="Bedtime Quests"><rect width="1024" height="500" fill="#16283A"/>
  <circle cx="628" cy="96" r="3.5" fill="#FFC24B"/>
  <circle cx="946" cy="150" r="3" fill="#FFF1DC"/>
  <circle cx="700" cy="430" r="3" fill="#FFF1DC"/>
  <circle cx="980" cy="380" r="3.5" fill="#2FB98A"/>
<g transform="translate(96 80) scale(3.4)">
  <circle cx="73" cy="27" r="13" fill="#FFF1DC"/>
  <circle cx="79" cy="23" r="10.5" fill="#16283A"/>
  <circle cx="24" cy="25" r="2" fill="#FFC24B"/>
  <circle cx="49" cy="18" r="1.4" fill="#FFF1DC"/>
  <circle cx="33" cy="45" r="1.3" fill="#FFC24B"/>
  <circle cx="88" cy="55" r="1.6" fill="#2FB98A"/>
  <path d="M27 61 L73 61 L64 74 L36 74 Z" fill="#FFF1DC"/>
  <path d="M8 78 Q24 72 40 78 T72 78 T96 78" fill="none" stroke="#2FB98A" stroke-width="3.4" stroke-linecap="round"/>
  <circle cx="22" cy="82" r="1.4" fill="#FFC24B"/>
  <circle cx="80" cy="82" r="1.4" fill="#FFF1DC"/>
  <path d="M40 61 L51 46 L61 61 Z" fill="#FFF1DC"/>
  <path d="M51 46 L51 61" stroke="#E14A2B" stroke-width="2.2" fill="none" stroke-linecap="round"/>
  <rect x="50.1" y="38.5" width="1.8" height="9" rx="0.9" fill="#FFF1DC"/>
  <path d="M51.9 39 L60 42 L51.9 45 Z" fill="#FF6B4A"/>
</g><text x="470" y="212" font-family="Arial, 'Segoe UI', 'Helvetica Neue', Helvetica, sans-serif" font-weight="800" font-size="104" fill="#FFF1DC">Bedtime</text><text x="470" y="318" font-family="Arial, 'Segoe UI', 'Helvetica Neue', Helvetica, sans-serif" font-weight="800" font-size="104" fill="#FFF1DC">Quests</text><text x="474" y="388" font-family="Arial, 'Segoe UI', 'Helvetica Neue', Helvetica, sans-serif" font-weight="700" font-size="38" fill="#FFC24B">Choose your own goodnight</text></svg>
