<svg xmlns="http://www.w3.org/2000/svg" width="512" height="512" viewBox="0 0 100 100" role="img" aria-label="Bedtime Quests"><rect width="100" height="100" rx="22" fill="#16283A"/><clipPath id="tileF"><rect width="100" height="100" rx="22"/></clipPath><mask id="mF"><rect width="100" height="100" fill="#FFFFFF"/><circle cx="72" cy="24" r="10.5" fill="#000000"/></mask><circle cx="77" cy="24" r="12" fill="#FFC24B" mask="url(#mF)"/><path d="M21 25 L24 32 L31 35 L24 38 L21 45 L18 38 L11 35 L18 32 Z" fill="#FFF1DC"/><path d="M50 28 L50 62" stroke="#FFF1DC" stroke-width="3.5" stroke-linecap="round"/><path d="M50 28 L68 35 L50 42 Z" fill="#FF6B4A"/><path d="M50 42 L50 62 L30 62 Z" fill="#FFF1DC"/><path d="M50 42 L70 62 L50 62 Z" fill="#FFF1DC"/><path d="M22 62 L78 62 L67 78 L33 78 Z" fill="#E14A2B"/><g clip-path="url(#tileF)"><path d="M0 76 Q25 70 50 73 Q75 76 100 71 L100 100 L0 100 Z" fill="#2FB98A"/></g></svg>
